<?xml version="1.0" encoding="UTF-8"?>
<svg xmlns="http://www.w3.org/2000/svg" width="646" height="278" viewBox="0 0 646 278" fill="none">
<defs>
<style>
.art{font-family:"JetBrains Mono","SFMono-Regular",Menlo,Consolas,monospace;font-weight:700;dominant-baseline:hanging;}
.tag{font-family:"Inter","Segoe UI",Arial,sans-serif;font-weight:500;letter-spacing:0.18em;dominant-baseline:hanging;}
</style>
</defs>
<text class="art" x="28.0" y="28.0" font-size="28" fill="#374548">█</text>
<text class="art" x="44.4" y="28.0" font-size="28" fill="#3d4d50">█</text>
<text class="art" x="60.8" y="28.0" font-size="28" fill="#445558">█</text>
<text class="art" x="77.2" y="28.0" font-size="28" fill="#4a5e61">█</text>
<text class="art" x="93.6" y="28.0" font-size="28" fill="#51676a">█</text>
<text class="art" x="110.0" y="28.0" font-size="28" fill="#587174">╗</text>
<text class="art" x="142.8" y="28.0" font-size="28" fill="#658486">█</text>
<text class="art" x="159.2" y="28.0" font-size="28" fill="#6d8e90">█</text>
<text class="art" x="175.6" y="28.0" font-size="28" fill="#749698">█</text>
<text class="art" x="192.0" y="28.0" font-size="28" fill="#7c9b9d">╗</text>
<text class="art" x="257.6" y="28.0" font-size="28" fill="#9eb2b4">█</text>
<text class="art" x="274.0" y="28.0" font-size="28" fill="#a6b7b9">█</text>
<text class="art" x="290.4" y="28.0" font-size="28" fill="#aebdbf">╗</text>
<text class="art" x="306.8" y="28.0" font-size="28" fill="#b7c3c5">█</text>
<text class="art" x="323.2" y="28.0" font-size="28" fill="#b3bec0">█</text>
<text class="art" x="339.6" y="28.0" font-size="28" fill="#acb8bb">╗</text>
<text class="art" x="421.6" y="28.0" font-size="28" fill="#8a989c">█</text>
<text class="art" x="438.0" y="28.0" font-size="28" fill="#849196">█</text>
<text class="art" x="454.4" y="28.0" font-size="28" fill="#818f94">╗</text>
<text class="art" x="470.8" y="28.0" font-size="28" fill="#839196">█</text>
<text class="art" x="487.2" y="28.0" font-size="28" fill="#859397">█</text>
<text class="art" x="503.6" y="28.0" font-size="28" fill="#879499">█</text>
<text class="art" x="520.0" y="28.0" font-size="28" fill="#88969a">█</text>
<text class="art" x="536.4" y="28.0" font-size="28" fill="#89979a">█</text>
<text class="art" x="552.8" y="28.0" font-size="28" fill="#8a989b">█</text>
<text class="art" x="569.2" y="28.0" font-size="28" fill="#8c999c">█</text>
<text class="art" x="585.6" y="28.0" font-size="28" fill="#8d9a9c">╗</text>
<text class="art" x="28.0" y="65.0" font-size="28" fill="#4a6264">█</text>
<text class="art" x="44.4" y="65.0" font-size="28" fill="#4f696c">█</text>
<text class="art" x="60.8" y="65.0" font-size="28" fill="#557073">╔</text>
<text class="art" x="77.2" y="65.0" font-size="28" fill="#5a787b">═</text>
<text class="art" x="93.6" y="65.0" font-size="28" fill="#618083">═</text>
<text class="art" x="110.0" y="65.0" font-size="28" fill="#67878a">█</text>
<text class="art" x="126.4" y="65.0" font-size="28" fill="#6d9093">█</text>
<text class="art" x="142.8" y="65.0" font-size="28" fill="#72999b">╗</text>
<text class="art" x="159.2" y="65.0" font-size="28" fill="#79a0a3">█</text>
<text class="art" x="175.6" y="65.0" font-size="28" fill="#80a9aa">█</text>
<text class="art" x="192.0" y="65.0" font-size="28" fill="#87adaf">█</text>
<text class="art" x="208.4" y="65.0" font-size="28" fill="#8eb2b4">█</text>
<text class="art" x="224.8" y="65.0" font-size="28" fill="#96b6b9">╗</text>
<text class="art" x="274.0" y="65.0" font-size="28" fill="#adc5c7">█</text>
<text class="art" x="290.4" y="65.0" font-size="28" fill="#b5c9cb">█</text>
<text class="art" x="306.8" y="65.0" font-size="28" fill="#bdced0">║</text>
<text class="art" x="323.2" y="65.0" font-size="28" fill="#bfcfd2">█</text>
<text class="art" x="339.6" y="65.0" font-size="28" fill="#bacacd">█</text>
<text class="art" x="356.0" y="65.0" font-size="28" fill="#b3c4c7">║</text>
<text class="art" x="438.0" y="65.0" font-size="28" fill="#94a9ad">█</text>
<text class="art" x="454.4" y="65.0" font-size="28" fill="#8ea4a8">█</text>
<text class="art" x="470.8" y="65.0" font-size="28" fill="#8fa5a9">║</text>
<text class="art" x="487.2" y="65.0" font-size="28" fill="#92a7ab">█</text>
<text class="art" x="503.6" y="65.0" font-size="28" fill="#93aaad">█</text>
<text class="art" x="520.0" y="65.0" font-size="28" fill="#96acb0">╔</text>
<text class="art" x="536.4" y="65.0" font-size="28" fill="#98aeb2">═</text>
<text class="art" x="552.8" y="65.0" font-size="28" fill="#9ab0b3">═</text>
<text class="art" x="569.2" y="65.0" font-size="28" fill="#9cb2b5">═</text>
<text class="art" x="585.6" y="65.0" font-size="28" fill="#9eb4b6">═</text>
<text class="art" x="602.0" y="65.0" font-size="28" fill="#9eb6b8">╝</text>
<text class="art" x="28.0" y="102.0" font-size="28" fill="#5d7b7e">█</text>
<text class="art" x="44.4" y="102.0" font-size="28" fill="#628284">█</text>
<text class="art" x="60.8" y="102.0" font-size="28" fill="#67888b">█</text>
<text class="art" x="77.2" y="102.0" font-size="28" fill="#6d8f92">█</text>
<text class="art" x="93.6" y="102.0" font-size="28" fill="#719698">█</text>
<text class="art" x="110.0" y="102.0" font-size="28" fill="#779ea0">█</text>
<text class="art" x="126.4" y="102.0" font-size="28" fill="#7ba5a7">█</text>
<text class="art" x="142.8" y="102.0" font-size="28" fill="#81acae">║</text>
<text class="art" x="159.2" y="102.0" font-size="28" fill="#87b4b6">█</text>
<text class="art" x="175.6" y="102.0" font-size="28" fill="#8cbbbc">█</text>
<text class="art" x="192.0" y="102.0" font-size="28" fill="#94bfc1">╔</text>
<text class="art" x="208.4" y="102.0" font-size="28" fill="#9bc3c5">█</text>
<text class="art" x="224.8" y="102.0" font-size="28" fill="#a2c7c9">█</text>
<text class="art" x="241.2" y="102.0" font-size="28" fill="#a9cbcd">╗</text>
<text class="art" x="274.0" y="102.0" font-size="28" fill="#b8d3d5">█</text>
<text class="art" x="290.4" y="102.0" font-size="28" fill="#bfd8d9">█</text>
<text class="art" x="306.8" y="102.0" font-size="28" fill="#c6dbdd">║</text>
<text class="art" x="323.2" y="102.0" font-size="28" fill="#c9dcdd">█</text>
<text class="art" x="339.6" y="102.0" font-size="28" fill="#c3d7d9">█</text>
<text class="art" x="356.0" y="102.0" font-size="28" fill="#bdd2d4">║</text>
<text class="art" x="388.8" y="102.0" font-size="28" fill="#b2c8cb">█</text>
<text class="art" x="405.2" y="102.0" font-size="28" fill="#acc4c7">╗</text>
<text class="art" x="438.0" y="102.0" font-size="28" fill="#a1babe">█</text>
<text class="art" x="454.4" y="102.0" font-size="28" fill="#9cb6b9">█</text>
<text class="art" x="470.8" y="102.0" font-size="28" fill="#9cb7bc">║</text>
<text class="art" x="487.2" y="102.0" font-size="28" fill="#a0babe">█</text>
<text class="art" x="503.6" y="102.0" font-size="28" fill="#a2bec2">█</text>
<text class="art" x="520.0" y="102.0" font-size="28" fill="#a5c0c4">█</text>
<text class="art" x="536.4" y="102.0" font-size="28" fill="#a8c3c6">█</text>
<text class="art" x="552.8" y="102.0" font-size="28" fill="#aac7ca">█</text>
<text class="art" x="569.2" y="102.0" font-size="28" fill="#adc9cc">█</text>
<text class="art" x="585.6" y="102.0" font-size="28" fill="#b0cdcf">█</text>
<text class="art" x="602.0" y="102.0" font-size="28" fill="#b2cfd1">╗</text>
<text class="art" x="28.0" y="139.0" font-size="28" fill="#66797d">█</text>
<text class="art" x="44.4" y="139.0" font-size="28" fill="#6b7f83">█</text>
<text class="art" x="60.8" y="139.0" font-size="28" fill="#6f868a">╔</text>
<text class="art" x="77.2" y="139.0" font-size="28" fill="#748d91">═</text>
<text class="art" x="93.6" y="139.0" font-size="28" fill="#799497">═</text>
<text class="art" x="110.0" y="139.0" font-size="28" fill="#7e9c9f">█</text>
<text class="art" x="126.4" y="139.0" font-size="28" fill="#83a3a6">█</text>
<text class="art" x="142.8" y="139.0" font-size="28" fill="#88abad">║</text>
<text class="art" x="159.2" y="139.0" font-size="28" fill="#8eb2b5">█</text>
<text class="art" x="175.6" y="139.0" font-size="28" fill="#93b9bc">█</text>
<text class="art" x="192.0" y="139.0" font-size="28" fill="#9abdbf">║</text>
<text class="art" x="208.4" y="139.0" font-size="28" fill="#a1c1c3">╚</text>
<text class="art" x="224.8" y="139.0" font-size="28" fill="#a8c5c8">█</text>
<text class="art" x="241.2" y="139.0" font-size="28" fill="#aec9cc">█</text>
<text class="art" x="257.6" y="139.0" font-size="28" fill="#b6cdd0">╗</text>
<text class="art" x="274.0" y="139.0" font-size="28" fill="#bcd2d4">█</text>
<text class="art" x="290.4" y="139.0" font-size="28" fill="#c4d5d8">█</text>
<text class="art" x="306.8" y="139.0" font-size="28" fill="#cbdadc">║</text>
<text class="art" x="323.2" y="139.0" font-size="28" fill="#cddbdd">█</text>
<text class="art" x="339.6" y="139.0" font-size="28" fill="#c7d6d8">█</text>
<text class="art" x="356.0" y="139.0" font-size="28" fill="#c2d0d3">║</text>
<text class="art" x="372.4" y="139.0" font-size="28" fill="#bccbcf">█</text>
<text class="art" x="388.8" y="139.0" font-size="28" fill="#b7c6cb">█</text>
<text class="art" x="405.2" y="139.0" font-size="28" fill="#b2c1c6">█</text>
<text class="art" x="421.6" y="139.0" font-size="28" fill="#acbdc2">╗</text>
<text class="art" x="438.0" y="139.0" font-size="28" fill="#a7b9bd">█</text>
<text class="art" x="454.4" y="139.0" font-size="28" fill="#a2b4b9">█</text>
<text class="art" x="470.8" y="139.0" font-size="28" fill="#a3b6ba">║</text>
<text class="art" x="487.2" y="139.0" font-size="28" fill="#a6b9bd">╚</text>
<text class="art" x="503.6" y="139.0" font-size="28" fill="#a9bcc0">═</text>
<text class="art" x="520.0" y="139.0" font-size="28" fill="#acbfc3">═</text>
<text class="art" x="536.4" y="139.0" font-size="28" fill="#afc1c6">═</text>
<text class="art" x="552.8" y="139.0" font-size="28" fill="#b2c4c8">═</text>
<text class="art" x="569.2" y="139.0" font-size="28" fill="#b5c7ca">█</text>
<text class="art" x="585.6" y="139.0" font-size="28" fill="#b8c9cd">█</text>
<text class="art" x="602.0" y="139.0" font-size="28" fill="#bacccf">║</text>
<text class="art" x="28.0" y="176.0" font-size="28" fill="#7c8489">█</text>
<text class="art" x="44.4" y="176.0" font-size="28" fill="#808a8f">█</text>
<text class="art" x="60.8" y="176.0" font-size="28" fill="#839194">║</text>
<text class="art" x="110.0" y="176.0" font-size="28" fill="#90a4a8">█</text>
<text class="art" x="126.4" y="176.0" font-size="28" fill="#94abae">█</text>
<text class="art" x="142.8" y="176.0" font-size="28" fill="#9ab2b5">║</text>
<text class="art" x="159.2" y="176.0" font-size="28" fill="#9eb9bc">█</text>
<text class="art" x="175.6" y="176.0" font-size="28" fill="#a3bfc3">█</text>
<text class="art" x="192.0" y="176.0" font-size="28" fill="#a9c3c6">║</text>
<text class="art" x="224.8" y="176.0" font-size="28" fill="#b4cacd">╚</text>
<text class="art" x="241.2" y="176.0" font-size="28" fill="#bbcfd1">█</text>
<text class="art" x="257.6" y="176.0" font-size="28" fill="#c1d2d5">█</text>
<text class="art" x="274.0" y="176.0" font-size="28" fill="#c7d5d8">█</text>
<text class="art" x="290.4" y="176.0" font-size="28" fill="#cdd9dc">█</text>
<text class="art" x="306.8" y="176.0" font-size="28" fill="#d3dde0">║</text>
<text class="art" x="323.2" y="176.0" font-size="28" fill="#d5dee1">╚</text>
<text class="art" x="339.6" y="176.0" font-size="28" fill="#d0d9dd">█</text>
<text class="art" x="356.0" y="176.0" font-size="28" fill="#ccd4d8">█</text>
<text class="art" x="372.4" y="176.0" font-size="28" fill="#c7d0d4">█</text>
<text class="art" x="388.8" y="176.0" font-size="28" fill="#c2ccd0">╔</text>
<text class="art" x="405.2" y="176.0" font-size="28" fill="#bec8cc">█</text>
<text class="art" x="421.6" y="176.0" font-size="28" fill="#b8c2c8">█</text>
<text class="art" x="438.0" y="176.0" font-size="28" fill="#b5bfc4">█</text>
<text class="art" x="454.4" y="176.0" font-size="28" fill="#b0bac0">╔</text>
<text class="art" x="470.8" y="176.0" font-size="28" fill="#b1bcc1">╝</text>
<text class="art" x="487.2" y="176.0" font-size="28" fill="#b4bec4">█</text>
<text class="art" x="503.6" y="176.0" font-size="28" fill="#b8c1c6">█</text>
<text class="art" x="520.0" y="176.0" font-size="28" fill="#bac4c9">█</text>
<text class="art" x="536.4" y="176.0" font-size="28" fill="#bdc6cb">█</text>
<text class="art" x="552.8" y="176.0" font-size="28" fill="#c0c9ce">█</text>
<text class="art" x="569.2" y="176.0" font-size="28" fill="#c3ccd1">█</text>
<text class="art" x="585.6" y="176.0" font-size="28" fill="#c6ced3">█</text>
<text class="art" x="602.0" y="176.0" font-size="28" fill="#c8d1d4">║</text>
<text class="art" x="28.0" y="213.0" font-size="28" fill="#989fa2">╚</text>
<text class="art" x="44.4" y="213.0" font-size="28" fill="#9ba4a7">═</text>
<text class="art" x="60.8" y="213.0" font-size="28" fill="#9fa9ac">╝</text>
<text class="art" x="110.0" y="213.0" font-size="28" fill="#a8babc">╚</text>
<text class="art" x="126.4" y="213.0" font-size="28" fill="#abbfc2">═</text>
<text class="art" x="142.8" y="213.0" font-size="28" fill="#afc5c7">╝</text>
<text class="art" x="159.2" y="213.0" font-size="28" fill="#b3cbce">╚</text>
<text class="art" x="175.6" y="213.0" font-size="28" fill="#b7d0d2">═</text>
<text class="art" x="192.0" y="213.0" font-size="28" fill="#bcd3d5">╝</text>
<text class="art" x="241.2" y="213.0" font-size="28" fill="#cbdcde">╚</text>
<text class="art" x="257.6" y="213.0" font-size="28" fill="#d0dee0">═</text>
<text class="art" x="274.0" y="213.0" font-size="28" fill="#d5e1e4">═</text>
<text class="art" x="290.4" y="213.0" font-size="28" fill="#dae4e7">═</text>
<text class="art" x="306.8" y="213.0" font-size="28" fill="#dfe7ea">╝</text>
<text class="art" x="339.6" y="213.0" font-size="28" fill="#dde4e7">╚</text>
<text class="art" x="356.0" y="213.0" font-size="28" fill="#d9e0e3">═</text>
<text class="art" x="372.4" y="213.0" font-size="28" fill="#d5dde0">═</text>
<text class="art" x="388.8" y="213.0" font-size="28" fill="#d1d9dc">╝</text>
<text class="art" x="405.2" y="213.0" font-size="28" fill="#cdd6d9">╚</text>
<text class="art" x="421.6" y="213.0" font-size="28" fill="#c9d2d7">═</text>
<text class="art" x="438.0" y="213.0" font-size="28" fill="#c6ced3">═</text>
<text class="art" x="454.4" y="213.0" font-size="28" fill="#c2cbd0">╝</text>
<text class="art" x="487.2" y="213.0" font-size="28" fill="#c7d0d4">╚</text>
<text class="art" x="503.6" y="213.0" font-size="28" fill="#cbd3d7">═</text>
<text class="art" x="520.0" y="213.0" font-size="28" fill="#cfd5da">═</text>
<text class="art" x="536.4" y="213.0" font-size="28" fill="#d1d9dc">═</text>
<text class="art" x="552.8" y="213.0" font-size="28" fill="#d4dcdf">═</text>
<text class="art" x="569.2" y="213.0" font-size="28" fill="#d8dfe2">═</text>
<text class="art" x="585.6" y="213.0" font-size="28" fill="#dbe1e4">═</text>
<text class="art" x="602.0" y="213.0" font-size="28" fill="#dee5e7">╝</text>
</svg>
